<?xml version="1.0" encoding="utf-8"?>
<!-- Generator: Adobe Illustrator 17.1.0, SVG Export Plug-In . SVG Version: 6.00 Build 0)  -->
<!DOCTYPE svg PUBLIC "-//W3C//DTD SVG 1.1//EN" "http://www.w3.org/Graphics/SVG/1.1/DTD/svg11.dtd">
<svg version="1.1" id="Layer_1" xmlns="http://www.w3.org/2000/svg" xmlns:xlink="http://www.w3.org/1999/xlink" x="0px" y="0px"
	 viewBox="0 0 188 300" enable-background="new 0 0 188 300" xml:space="preserve">
<path fill="#ffffff" d="M94.081,297.723c50.824,0,92.172-41.348,92.172-92.17c0-19.871-6.259-38.814-18.099-54.782l-0.575-0.776l0.575-0.776
	c11.841-15.968,18.099-34.911,18.099-54.781c0-50.824-41.348-92.172-92.172-92.172c-50.824,0-92.172,41.348-92.172,92.172
	c0,19.87,6.259,38.813,18.099,54.781l0.575,0.776l-0.575,0.776C8.168,166.739,1.909,185.682,1.909,205.552
	C1.909,256.375,43.257,297.723,94.081,297.723z M18.345,94.438c0-41.761,33.975-75.736,75.736-75.736
	c41.761,0,75.736,33.975,75.736,75.736c0,14.961-4.395,29.455-12.709,41.916l-0.83,1.243l-1.118-0.992
	c-16.887-14.978-38.579-23.226-61.079-23.226c-22.5,0-44.192,8.248-61.079,23.226l-1.118,0.992l-0.83-1.243
	C22.74,123.893,18.345,109.399,18.345,94.438z M145.404,149.994l-1.094,0.973c-13.923,12.385-31.761,19.205-50.229,19.205
	c-18.468,0-36.306-6.82-50.228-19.205l-1.094-0.973l1.094-0.973c13.923-12.385,31.761-19.206,50.228-19.206
	c18.467,0,36.305,6.821,50.229,19.206L145.404,149.994z M31.054,163.635l0.83-1.243l1.118,0.992
	c16.888,14.977,38.579,23.226,61.079,23.226c22.5,0,44.191-8.249,61.079-23.226l1.118-0.992l0.83,1.243
	c8.314,12.462,12.709,26.956,12.709,41.917c0,41.76-33.975,75.734-75.736,75.734c-41.761,0-75.736-33.974-75.736-75.734
	C18.345,190.592,22.74,176.097,31.054,163.635z"/>
</svg>
